<svg width="83" height="83" viewBox="0 0 83 83" fill="none" xmlns="http://www.w3.org/2000/svg">
<g clip-path="url(#clip0_80425_86)">
<rect width="83" height="83" fill="white"/>
<rect x="0.0966797" width="83" height="83" fill="#26499A"/>
<path d="M19.9673 24.4776L-1.92691 26.8817C-3.11493 27.0121 -4.16285 27.6372 -4.79243 28.591C-6.61289 31.349 -4.14663 35.005 -0.708769 34.6446L24.0888 32.045C26.4191 31.8007 28.559 30.7923 30.147 29.1901L42.597 16.6291C45.2015 14.0014 43.2507 9.54816 39.3887 9.30536C38.0032 9.21825 36.6768 9.7426 35.7911 10.7275L26.2869 21.2967C24.6884 23.0744 22.4401 24.206 19.9673 24.4776Z" fill="#FFF2F2"/>
<path d="M23.9603 41.1371L-0.219809 43.2215C-1.33544 43.3177 -2.34289 43.8529 -3.00544 44.7015C-5.11566 47.4041 -2.75115 51.3516 0.804257 51.0618L27.6864 48.8701C29.8566 48.6932 31.8829 47.8474 33.4663 46.4576L47.8789 33.8071C50.7748 31.2652 48.9408 26.5049 44.9451 26.1923C43.6456 26.0907 42.3849 26.5293 41.4836 27.3965L30.0105 38.4357C28.4 39.9853 26.2653 40.9384 23.9603 41.1371Z" fill="white"/>
<path d="M24.9529 59.0281L-4.82676 60.9834C-5.79083 61.0467 -6.6879 61.4403 -7.35922 62.0944C-10.0043 64.6718 -7.78397 69.1759 -3.98367 68.9418L28.0947 66.966C29.939 66.8524 31.697 66.2488 33.1778 65.2207L52.0084 52.1461C55.4398 49.7636 53.7488 44.4027 49.4574 44.0587C48.3322 43.9685 47.2278 44.2829 46.3551 44.9419L30.3034 57.0614C28.7745 58.2158 26.9151 58.8993 24.9529 59.0281Z" fill="white"/>
</g>
<defs>
<clipPath id="clip0_80425_86">
<rect width="83" height="83" fill="white"/>
</clipPath>
</defs>
</svg>
